<svg width="360" height="360" viewBox="0 0 360 360" fill="none" xmlns="http://www.w3.org/2000/svg">
<rect width="360" height="360" fill="#354E66"/>
<path fill-rule="evenodd" clip-rule="evenodd" d="M229.04 296C229.04 298.209 230.831 300 233.04 300H261.562C263.771 300 265.562 298.209 265.562 296V265.56H295.999C298.208 265.56 299.999 263.769 299.999 261.56V233.038C299.999 230.829 298.208 229.038 295.999 229.038H265.562V199.652C265.562 197.443 263.771 195.652 261.562 195.652L233.04 195.652C230.831 195.652 229.04 197.443 229.04 199.652V229.038H199.651C197.442 229.038 195.651 230.829 195.651 233.038V261.56C195.651 263.769 197.442 265.56 199.651 265.56H229.04V296Z" fill="#DBEEFF"/>
<rect x="164.343" y="60" width="104.348" height="36.5218" rx="4" transform="rotate(90 164.343 60)" fill="#DBEEFF"/>
<rect x="96.5215" y="60" width="104.348" height="36.5218" rx="4" transform="rotate(90 96.5215 60)" fill="#DBEEFF"/>
<ellipse cx="112.174" cy="247.826" rx="52.1739" ry="52.174" transform="rotate(-90 112.174 247.826)" fill="#DBEEFF"/>
<rect x="195.652" y="164.348" width="104.348" height="104.348" rx="4" transform="rotate(-90 195.652 164.348)" fill="#DBEEFF"/>
</svg>
